<svg width="186" height="36" viewBox="0 0 186 36" fill="none" xmlns="http://www.w3.org/2000/svg">
<g filter="url(#filter0_b_216_10)">
<path fill-rule="evenodd" clip-rule="evenodd" d="M5.07581 0.898956C2.31438 0.898956 0.0758057 3.13753 0.0758057 5.89896V30.899C0.0758057 33.6604 2.31438 35.899 5.0758 35.899H180.076C182.837 35.899 185.076 33.6604 185.076 30.899V5.89896C185.076 3.13753 182.837 0.898956 180.076 0.898956H5.07581ZM30.9282 24.7085H34.4595V13.2554H23.5063V24.7085H27.0376V16.0679H30.9282V24.7085ZM37.936 14.6226C36.8944 15.6643 36.3735 17.12 36.3735 18.9898C36.3735 20.3283 36.6365 21.4429 37.1626 22.3335C37.6886 23.2242 38.3735 23.8752 39.2173 24.2867C40.0662 24.6981 41.1365 24.9039 42.4282 24.9039C43.699 24.9039 44.7589 24.6669 45.6079 24.1929C46.4621 23.7138 47.1131 23.0471 47.561 22.1929C48.0142 21.3335 48.2407 20.2346 48.2407 18.896C48.2407 17.0523 47.7251 15.62 46.6938 14.5992C45.6626 13.5731 44.1938 13.0601 42.2876 13.0601C40.4282 13.0601 38.9777 13.5809 37.936 14.6226ZM40.5532 21.4976C40.1261 20.9924 39.9126 20.1617 39.9126 19.0054C39.9126 17.8388 40.1287 17.0028 40.561 16.4976C40.9933 15.9924 41.5662 15.7398 42.2798 15.7398C43.0246 15.7398 43.6131 15.9898 44.0454 16.4898C44.4829 16.9846 44.7017 17.771 44.7017 18.8492C44.7017 20.1304 44.4933 21.0184 44.0767 21.5132C43.66 22.008 43.0714 22.2554 42.311 22.2554C41.5714 22.2554 40.9855 22.0028 40.5532 21.4976ZM59.311 27.2007H62.1626V22.0679H60.9282V13.2554H51.3267V15.8101C51.3267 18.133 50.9959 20.219 50.3345 22.0679H49.1548V27.2007H51.9985V24.7085H59.311V27.2007ZM57.3892 16.0679V22.0679H53.7407C54.2772 19.7502 54.5454 17.7997 54.5454 16.2164V16.0679H57.3892ZM70.9907 24.7085H74.522V13.2554H63.5688V24.7085H67.1001V16.0679H70.9907V24.7085ZM87.8423 24.7085V13.2554H84.5376L80.2251 19.5914V13.2554H76.8892V24.7085H80.2251L84.5142 18.4195V24.7085H87.8423ZM100.936 20.9664L97.8345 20.0289C97.6782 20.7528 97.4256 21.3049 97.0767 21.6851C96.7329 22.0653 96.2225 22.2554 95.5454 22.2554C94.8475 22.2554 94.3058 22.021 93.9204 21.5523C93.535 21.0783 93.3423 20.2059 93.3423 18.9351C93.3423 17.9091 93.5037 17.1565 93.8267 16.6773C94.2537 16.0315 94.8683 15.7085 95.6704 15.7085C96.0246 15.7085 96.3449 15.7815 96.6313 15.9273C96.9178 16.0731 97.16 16.2815 97.3579 16.5523C97.4777 16.7138 97.5923 16.969 97.7017 17.3179L100.827 16.6226C100.426 15.4143 99.811 14.5184 98.9829 13.9351C98.16 13.3518 97.0272 13.0601 95.5845 13.0601C93.7407 13.0601 92.3136 13.5705 91.3032 14.5914C90.298 15.607 89.7954 17.0627 89.7954 18.9585C89.7954 20.3804 90.0819 21.5471 90.6548 22.4585C91.2277 23.37 91.9074 24.008 92.6938 24.3726C93.4855 24.732 94.5037 24.9117 95.7485 24.9117C96.7746 24.9117 97.6183 24.7632 98.2798 24.4664C98.9464 24.1695 99.5037 23.7294 99.9517 23.146C100.4 22.5627 100.728 21.8361 100.936 20.9664ZM105.678 22.8179H109.709L110.272 24.7085H113.975L109.67 13.2554H105.811L101.506 24.7085H105.124L105.678 22.8179ZM107.702 16.2242L108.967 20.3414H106.444L107.702 16.2242ZM125.069 13.2554H114.311V16.0835H117.92V24.7085H121.459V16.0835H125.069V13.2554ZM132.116 17.6695H130.225V13.2554H126.694V24.7085H132.772C134.209 24.7085 135.311 24.4299 136.077 23.8726C136.847 23.3101 137.233 22.5002 137.233 21.4429C137.233 20.1513 136.814 19.2007 135.975 18.5914C135.137 17.9768 133.85 17.6695 132.116 17.6695ZM132.038 22.2476H130.225V19.9898H132.038C133.147 19.9898 133.702 20.3414 133.702 21.0445C133.702 21.8466 133.147 22.2476 132.038 22.2476ZM149.795 20.9664L146.694 20.0289C146.538 20.7528 146.285 21.3049 145.936 21.6851C145.592 22.0653 145.082 22.2554 144.405 22.2554C143.707 22.2554 143.165 22.021 142.78 21.5523C142.394 21.0783 142.202 20.2059 142.202 18.9351C142.202 17.9091 142.363 17.1565 142.686 16.6773C143.113 16.0315 143.728 15.7085 144.53 15.7085C144.884 15.7085 145.204 15.7815 145.491 15.9273C145.777 16.0731 146.019 16.2815 146.217 16.5523C146.337 16.7138 146.452 16.969 146.561 17.3179L149.686 16.6226C149.285 15.4143 148.67 14.5184 147.842 13.9351C147.019 13.3518 145.887 13.0601 144.444 13.0601C142.6 13.0601 141.173 13.5705 140.163 14.5914C139.157 15.607 138.655 17.0627 138.655 18.9585C138.655 20.3804 138.941 21.5471 139.514 22.4585C140.087 23.37 140.767 24.008 141.553 24.3726C142.345 24.732 143.363 24.9117 144.608 24.9117C145.634 24.9117 146.478 24.7632 147.139 24.4664C147.806 24.1695 148.363 23.7294 148.811 23.146C149.259 22.5627 149.587 21.8361 149.795 20.9664ZM161.647 13.2554V24.7085H158.092V20.0601H157.78C157.457 20.0601 157.168 20.1486 156.913 20.3257C156.725 20.4611 156.512 20.7554 156.272 21.2085L154.381 24.7085H150.381L152.092 21.3882C152.176 21.2216 152.34 20.9846 152.584 20.6773C152.834 20.37 153.025 20.1695 153.155 20.0757C153.347 19.9351 153.655 19.7945 154.077 19.6539C153.551 19.5341 153.137 19.383 152.834 19.2007C152.361 18.9143 151.988 18.5419 151.717 18.0835C151.446 17.62 151.311 17.0705 151.311 16.4351C151.311 15.7059 151.488 15.0888 151.842 14.5835C152.196 14.0731 152.663 13.7242 153.241 13.5367C153.819 13.3492 154.655 13.2554 155.749 13.2554H161.647ZM156.6 17.896H158.092V15.5679H156.538C155.892 15.5679 155.452 15.6669 155.217 15.8648C154.983 16.0627 154.866 16.3466 154.866 16.7164C154.866 16.9664 154.939 17.1877 155.084 17.3804C155.236 17.5731 155.428 17.6929 155.663 17.7398C156.126 17.844 156.439 17.896 156.6 17.896Z" fill="white"/>
</g>
<defs>
<filter id="filter0_b_216_10" x="-3.92419" y="-3.10104" width="193" height="43" filterUnits="userSpaceOnUse" color-interpolation-filters="sRGB">
<feFlood flood-opacity="0" result="BackgroundImageFix"/>
<feGaussianBlur in="BackgroundImage" stdDeviation="2"/>
<feComposite in2="SourceAlpha" operator="in" result="effect1_backgroundBlur_216_10"/>
<feBlend mode="normal" in="SourceGraphic" in2="effect1_backgroundBlur_216_10" result="shape"/>
</filter>
</defs>
</svg>
