<svg width="170" height="36" viewBox="0 0 170 36" fill="none" xmlns="http://www.w3.org/2000/svg">
<g filter="url(#filter0_b_177_66)">
<path fill-rule="evenodd" clip-rule="evenodd" d="M5 0.852844C2.23858 0.852844 0 3.09142 0 5.85284V30.8528C0 33.6143 2.23858 35.8528 5 35.8528H165C167.761 35.8528 170 33.6143 170 30.8528V5.85284C170 3.09142 167.761 0.852844 165 0.852844H5ZM47.9973 20.7756C47.9973 19.4162 47.3098 18.5516 45.9348 18.1818C46.9139 17.7287 47.4035 16.9397 47.4035 15.8147C47.4035 14.8824 46.9999 14.1402 46.1926 13.5881C45.3853 13.036 44.2707 12.76 42.8488 12.76C40.2811 12.76 38.7395 13.7522 38.2238 15.7365L41.3879 16.1037C41.5181 15.3902 41.9843 15.0334 42.7863 15.0334C43.5624 15.0334 43.9504 15.3433 43.9504 15.9631C43.9504 16.385 43.8202 16.7157 43.5598 16.9553C43.3046 17.1897 42.9504 17.3068 42.4973 17.3068H41.7395V19.3537H42.7004C43.2525 19.3537 43.6874 19.4865 44.0051 19.7522C44.3228 20.0126 44.4817 20.3537 44.4817 20.7756C44.4817 21.2131 44.354 21.5542 44.0988 21.799C43.8488 22.0438 43.479 22.1662 42.9895 22.1662C42.1093 22.1662 41.5754 21.7678 41.3879 20.9709L38.0442 21.2209C38.6952 23.4761 40.3645 24.6037 43.052 24.6037C44.6249 24.6037 45.841 24.2469 46.7004 23.5334C47.565 22.8147 47.9973 21.8954 47.9973 20.7756ZM52.7863 22.5178H56.8176L57.3801 24.4084H61.0832L56.7785 12.9553H52.9192L48.6145 24.4084H52.2317L52.7863 22.5178ZM54.8098 15.924L56.0754 20.0412H53.552L54.8098 15.924ZM68.6535 24.4084H72.6379L71.0832 21.2756C70.6561 20.411 70.2525 19.7756 69.8723 19.3693C69.4921 18.9579 69.0468 18.6688 68.5363 18.5022C68.9113 18.3511 69.2056 18.1506 69.4192 17.9006C69.6379 17.6454 69.841 17.2626 70.0285 16.7522C70.216 16.2365 70.4556 15.8641 70.7473 15.635C71.0389 15.4058 71.4869 15.2912 72.091 15.2912H72.2707V12.8693C70.9686 12.8693 70.0129 12.937 69.4035 13.0725C68.7942 13.2079 68.354 13.4318 68.0832 13.7443C67.8124 14.0516 67.5442 14.562 67.2785 15.2756C66.9139 16.2391 66.6457 16.8225 66.4738 17.0256C66.302 17.2287 66.0624 17.3381 65.7551 17.3537V12.9553H62.2238V24.4084H65.7551V19.8772C66.078 19.8772 66.3306 19.9657 66.5129 20.1428C66.6952 20.3147 66.9504 20.7495 67.2785 21.4475L68.6535 24.4084ZM76.927 22.5178H80.9582L81.5207 24.4084H85.2238L80.9192 12.9553H77.0598L72.7551 24.4084H76.3723L76.927 22.5178ZM78.9504 15.924L80.216 20.0412H77.6926L78.9504 15.924ZM95.6067 20.7756C95.6067 19.4162 94.9192 18.5516 93.5442 18.1818C94.5233 17.7287 95.0129 16.9397 95.0129 15.8147C95.0129 14.8824 94.6093 14.1402 93.802 13.5881C92.9947 13.036 91.8801 12.76 90.4582 12.76C87.8905 12.76 86.3488 13.7522 85.8332 15.7365L88.9973 16.1037C89.1275 15.3902 89.5936 15.0334 90.3957 15.0334C91.1718 15.0334 91.5598 15.3433 91.5598 15.9631C91.5598 16.385 91.4296 16.7157 91.1692 16.9553C90.9139 17.1897 90.5598 17.3068 90.1067 17.3068H89.3488V19.3537H90.3098C90.8619 19.3537 91.2968 19.4865 91.6145 19.7522C91.9322 20.0126 92.091 20.3537 92.091 20.7756C92.091 21.2131 91.9634 21.5542 91.7082 21.799C91.4582 22.0438 91.0884 22.1662 90.5988 22.1662C89.7186 22.1662 89.1848 21.7678 88.9973 20.9709L85.6535 21.2209C86.3046 23.4761 87.9738 24.6037 90.6613 24.6037C92.2343 24.6037 93.4504 24.2469 94.3098 23.5334C95.1744 22.8147 95.6067 21.8954 95.6067 20.7756ZM100.396 22.5178H104.427L104.989 24.4084H108.693L104.388 12.9553H100.529L96.2238 24.4084H99.841L100.396 22.5178ZM102.419 15.924L103.685 20.0412H101.161L102.419 15.924ZM119.786 12.9553H109.029V15.7834H112.638V24.4084H116.177V15.7834H119.786V12.9553ZM126.833 17.3693H124.943V12.9553H121.411V24.4084H127.489C128.927 24.4084 130.029 24.1298 130.794 23.5725C131.565 23.01 131.95 22.2001 131.95 21.1428C131.95 19.8511 131.531 18.9006 130.693 18.2912C129.854 17.6766 128.568 17.3693 126.833 17.3693ZM126.755 21.9475H124.943V19.6897H126.755C127.864 19.6897 128.419 20.0412 128.419 20.7443C128.419 21.5464 127.864 21.9475 126.755 21.9475Z" fill="white"/>
</g>
<defs>
<filter id="filter0_b_177_66" x="-4" y="-3.14716" width="178" height="43" filterUnits="userSpaceOnUse" color-interpolation-filters="sRGB">
<feFlood flood-opacity="0" result="BackgroundImageFix"/>
<feGaussianBlur in="BackgroundImage" stdDeviation="2"/>
<feComposite in2="SourceAlpha" operator="in" result="effect1_backgroundBlur_177_66"/>
<feBlend mode="normal" in="SourceGraphic" in2="effect1_backgroundBlur_177_66" result="shape"/>
</filter>
</defs>
</svg>
