<svg width="123" height="29" viewBox="0 0 123 29" fill="none" xmlns="http://www.w3.org/2000/svg">
<path d="M26.7481 0.614474C25.9622 -0.203635 24.6539 -0.205005 23.8663 0.611455L0.564563 24.767C-0.66049 26.037 0.239477 28.1556 2.00399 28.1556H52.698C54.4297 28.1556 55.343 26.1044 54.1844 24.8174L37.4123 6.18721C36.7616 5.46441 35.6348 5.44386 34.9582 6.14246L32.9693 8.19594C31.762 9.44244 29.7983 7.85408 30.765 6.41295C31.1378 5.85719 31.0731 5.11678 30.6095 4.63417L26.7481 0.614474Z" fill="#FF9900"/>
<path d="M50.7288 14.4138C49.8692 14.4138 49.0115 14.4118 48.1557 14.408C48.404 13.6615 48.6523 12.9189 48.9007 12.1801C46.6924 12.1763 44.486 12.1744 42.2816 12.1744C42.0332 12.9208 41.7868 13.6673 41.5423 14.4138C40.6865 14.4138 39.8307 14.4118 38.9749 14.408C39.4792 12.8768 39.9835 11.3418 40.4878 9.80289C40.8431 9.80289 41.1984 9.8048 41.5537 9.80863C42.6999 8.14343 43.6226 6.27152 44.3103 4.18716C44.5624 3.42538 44.8146 2.66169 45.0667 1.89608C47.978 1.89608 50.8893 1.89608 53.8005 1.89608C52.918 4.52977 52.0354 7.16537 51.1529 9.80289C51.5273 9.80289 51.8998 9.80289 52.2704 9.80289C51.7546 11.3418 51.2408 12.8787 50.7288 14.4138ZM47.9436 9.80863C48.5396 8.01328 49.1375 6.21602 49.7374 4.41684C48.8778 4.42067 48.0181 4.42258 47.1585 4.42258C47.1432 4.46469 47.1279 4.51063 47.1127 4.56039C46.6427 5.97294 45.8175 7.72426 44.6369 9.80863C45.7411 9.8048 46.8433 9.8048 47.9436 9.80863Z" fill="black"/>
<path d="M54.0527 7.0467C54.6201 5.36428 55.5313 4.06083 56.792 3.13062C58.0586 2.18893 59.5314 1.71808 61.2277 1.72382C62.9642 1.71808 64.139 2.18893 64.7636 3.10191C65.3883 4.02064 65.417 5.30112 64.8553 6.96057C64.4427 8.15492 63.904 9.14829 63.2278 9.91773C62.563 10.6814 61.7664 11.2843 60.8495 11.7092C59.9325 12.1342 58.901 12.3466 57.7548 12.3524C56.5857 12.3524 55.6803 12.1686 55.0327 11.7954C54.3908 11.4279 53.9667 10.8479 53.7604 10.0383C53.5541 9.24591 53.6515 8.24679 54.0527 7.0467ZM57.262 7.05244C56.9124 8.09175 56.8551 8.83822 57.09 9.29184C57.325 9.74546 57.7835 9.9694 58.454 9.9694C59.136 9.9694 59.7434 9.75121 60.2764 9.30333C60.8094 8.86693 61.2621 8.06304 61.6518 6.91463C61.9842 5.94997 62.0243 5.24944 61.7836 4.80156C61.5372 4.34794 61.0787 4.12974 60.4025 4.124C59.7549 4.12974 59.1589 4.35942 58.6087 4.81304C58.07 5.25518 57.6173 6.01313 57.262 7.05244Z" fill="black"/>
<path d="M68.3282 1.89608C69.4056 1.89608 70.4792 1.89608 71.549 1.89608C71.1363 3.09426 70.7237 4.29243 70.3111 5.4906C71.4802 5.4906 72.6531 5.49252 73.8298 5.49635C74.2425 4.29817 74.657 3.09808 75.0734 1.89608C76.147 1.89608 77.2244 1.89608 78.3056 1.89608C77.1136 5.326 75.9216 8.75209 74.7296 12.1744C73.6598 12.1782 72.5901 12.1782 71.5203 12.1744C71.9979 10.7886 72.4755 9.40286 72.953 8.01711C71.7801 8.01711 70.6091 8.01902 69.44 8.02285C68.9663 9.4086 68.4906 10.7943 68.013 12.1801C66.9471 12.1763 65.8793 12.1763 64.8095 12.1801C65.9824 8.754 67.1553 5.326 68.3282 1.89608Z" fill="black"/>
<path d="M82.2828 5.86384C82.8521 5.86384 83.4233 5.86192 83.9964 5.8581C85.5723 5.8581 86.644 6.13946 87.2114 6.68495C87.7787 7.23045 87.8647 8.08027 87.452 9.24016C87.1197 10.1933 86.5065 10.9168 85.6354 11.4221C84.7586 11.9274 83.6754 12.1744 82.3803 12.1801C80.5464 12.1801 78.7106 12.1782 76.8729 12.1744C78.0688 8.75209 79.2627 5.32791 80.4547 1.90182C83.3774 1.90182 86.3002 1.90182 89.2229 1.90182C88.9822 2.5947 88.7396 3.28566 88.4951 3.9747C86.6421 3.97853 84.791 3.97853 82.9419 3.9747C82.7241 4.60633 82.5044 5.23604 82.2828 5.86384ZM80.8444 9.96366C81.3907 9.96749 81.939 9.96749 82.4891 9.96366C83.492 9.9694 84.1224 9.60191 84.3746 8.8899C84.5981 8.25827 84.2027 7.94246 83.1998 7.94246C82.6496 7.93863 82.1014 7.93863 81.555 7.94246C81.3181 8.62002 81.0813 9.29376 80.8444 9.96366Z" fill="black"/>
<path d="M95.1142 10.4747C93.8993 10.4785 92.6824 10.4785 91.4636 10.4747C91.0969 11.0451 90.7282 11.6135 90.3576 12.1801C89.2649 12.1801 88.1741 12.1801 87.0853 12.1801C89.5992 8.75018 92.115 5.32409 94.6328 1.90182C95.8057 1.898 96.9767 1.89608 98.1458 1.89608C98.2222 5.326 98.2967 8.75209 98.3693 12.1744C97.2499 12.1782 96.1324 12.1782 95.0168 12.1744C95.0512 11.6078 95.0836 11.0413 95.1142 10.4747ZM95.2345 8.25827C95.2918 7.02565 95.3511 5.79302 95.4122 4.56039C94.5908 5.78919 93.7694 7.02182 92.9479 8.25827C93.712 8.25445 94.4742 8.25445 95.2345 8.25827Z" fill="black"/>
<path d="M107.831 7.97117C108.668 8.25827 109.502 8.54155 110.335 8.82099C109.865 9.59617 109.327 10.245 108.731 10.7675C108.135 11.3016 107.487 11.692 106.788 11.9562C106.094 12.226 105.281 12.3524 104.352 12.3581C103.223 12.3581 102.364 12.1973 101.762 11.8758C101.166 11.5485 100.759 10.9743 100.536 10.1531C100.306 9.34352 100.427 8.28698 100.885 7.01799C101.493 5.3126 102.427 4.00341 103.665 3.09617C104.914 2.18318 106.381 1.72382 108.054 1.72382C109.367 1.71808 110.301 1.98221 110.863 2.50474C111.424 3.02727 111.688 3.83115 111.659 4.9164C110.639 5.12694 109.619 5.33557 108.599 5.54228C108.61 5.22647 108.593 5.00253 108.536 4.85898C108.438 4.61781 108.289 4.42833 108.072 4.29052C107.865 4.16993 107.596 4.09529 107.275 4.09529C106.547 4.10103 105.882 4.38813 105.281 4.97382C104.839 5.39299 104.45 6.07055 104.117 6.98928C103.705 8.13195 103.596 8.91861 103.791 9.34352C103.986 9.76269 104.404 9.97515 105.034 9.97515C105.647 9.9694 106.169 9.80863 106.605 9.45836C107.046 9.12532 107.453 8.62576 107.831 7.97117Z" fill="black"/>
<path d="M119.126 7.97691C119.959 8.26019 120.792 8.53963 121.625 8.81525C121.144 9.59617 120.611 10.2508 120.009 10.7675C119.407 11.3016 118.76 11.692 118.055 11.9619C117.356 12.2203 116.548 12.3581 115.619 12.3524C114.496 12.3524 113.631 12.1973 113.035 11.8758C112.439 11.5427 112.037 10.9685 111.814 10.1589C111.596 9.34352 111.722 8.29273 112.186 7.01799C112.805 5.3126 113.745 4.00916 114.989 3.09617C116.244 2.18318 117.711 1.71808 119.39 1.71808C120.697 1.72382 121.631 1.98221 122.187 2.51048C122.748 3.02727 123.006 3.83689 122.972 4.92214C121.952 5.12886 120.93 5.33557 119.906 5.54228C119.917 5.23221 119.9 5.00253 119.849 4.85324C119.757 4.61207 119.602 4.42258 119.39 4.29626C119.184 4.16993 118.909 4.09529 118.593 4.10103C117.866 4.09529 117.201 4.38813 116.593 4.96808C116.152 5.39873 115.751 6.07629 115.413 6.98928C114.994 8.13195 114.88 8.91287 115.075 9.34352C115.27 9.76269 115.688 9.97515 116.318 9.97515C116.926 9.9694 117.453 9.80863 117.894 9.45836C118.33 9.11958 118.748 8.62576 119.126 7.97691Z" fill="black"/>
<path d="M51.4165 17.4054C52.8148 17.4054 54.2132 17.4054 55.6115 17.4054C55.451 19.484 55.2867 21.5664 55.1186 23.6527C56.3641 21.5664 57.6096 19.484 58.8552 17.4054C60.2497 17.4054 61.6442 17.4054 63.0387 17.4054C61.8696 20.8276 60.6967 24.2537 59.5199 27.6836C58.6565 27.6836 57.7911 27.6836 56.9239 27.6836C57.8179 25.0691 58.71 22.4564 59.6002 19.8457C58.0375 22.4564 56.4749 25.0672 54.9123 27.6779C54.1291 27.6817 53.3459 27.6836 52.5627 27.6836C52.7805 25.0691 52.9963 22.4564 53.2103 19.8457C52.3277 22.4564 51.4433 25.0691 50.5569 27.6836C49.6896 27.6798 48.8224 27.6779 47.9551 27.6779C49.1089 24.2556 50.2627 20.8314 51.4165 17.4054Z" fill="black"/>
<path d="M65.0788 17.4054C67.9328 17.4054 70.7848 17.4054 73.635 17.4054C73.379 18.1327 73.125 18.8638 72.8728 19.5988C71.0924 19.595 69.3101 19.5931 67.5259 19.5931C67.3387 20.1405 67.1515 20.6841 66.9643 21.2238C68.6148 21.2238 70.2672 21.2257 71.9215 21.2296C71.677 21.9263 71.4324 22.623 71.1879 23.3197C69.5374 23.3197 67.887 23.3197 66.2365 23.3197C66.0034 23.9972 65.7704 24.6729 65.5373 25.3466C67.3674 25.3504 69.1974 25.3524 71.0275 25.3524C70.7562 26.1256 70.4849 26.9027 70.2137 27.6836C67.3253 27.6798 64.437 27.6798 61.5486 27.6836C62.7292 24.2537 63.9059 20.8276 65.0788 17.4054Z" fill="black"/>
<path d="M77.3371 21.3616C77.8987 21.3616 78.4642 21.3635 79.0334 21.3674C80.598 21.3674 81.6582 21.6373 82.2198 22.1942C82.7814 22.7397 82.8616 23.5838 82.449 24.7437C82.1166 25.6969 81.5092 26.4261 80.6381 26.9257C79.7727 27.431 78.6953 27.6836 77.4116 27.6836C75.5892 27.6836 73.7687 27.6836 71.9501 27.6836C73.146 24.2537 74.3399 20.8276 75.5319 17.4054C78.4317 17.4015 81.3315 17.4015 84.2313 17.4054C83.9868 18.0982 83.7423 18.793 83.4978 19.4897C81.6639 19.4897 79.8281 19.4897 77.9904 19.4897C77.7727 20.1099 77.5549 20.7338 77.3371 21.3616ZM75.8987 25.4672C76.4374 25.4672 76.9799 25.4691 77.5262 25.4729C78.5177 25.4672 79.1481 25.1054 79.4002 24.3934C79.6237 23.7618 79.234 23.4403 78.2369 23.4403C77.6905 23.4403 77.148 23.4422 76.6093 23.446C76.3686 24.1197 76.1317 24.7935 75.8987 25.4672Z" fill="black"/>
<path d="M86.7529 17.4054C89.6068 17.4054 92.4589 17.4054 95.309 17.4054C95.0492 18.1327 94.7875 18.8638 94.5239 19.5988C92.7397 19.595 90.9555 19.595 89.1713 19.5988C88.9765 20.1424 88.7816 20.686 88.5868 21.2296C90.2411 21.2257 91.8954 21.2257 93.5497 21.2296C93.3013 21.9263 93.0511 22.623 92.7989 23.3197C91.1446 23.3197 89.4922 23.3216 87.8417 23.3254C87.6011 24.003 87.3604 24.6786 87.1197 25.3524C88.9497 25.3524 90.7817 25.3524 92.6155 25.3524C92.3366 26.1294 92.0577 26.9065 91.7788 27.6836C88.8867 27.6836 85.9964 27.6836 83.1081 27.6836C84.323 24.2575 85.5379 20.8314 86.7529 17.4054Z" fill="black"/>
<path d="M102.943 27.6779C101.884 27.6817 100.826 27.6817 99.7676 27.6779C100.704 25.094 101.642 22.5081 102.581 19.9204C101.749 19.9204 100.918 19.9204 100.089 19.9204C99.7065 20.9807 99.3245 22.0373 98.9424 23.09C98.4725 24.3877 98.0598 25.3409 97.6931 25.9553C97.3435 26.5582 96.8621 27.0061 96.2489 27.2874C95.6357 27.5803 94.7703 27.7181 93.6356 27.7181C93.2918 27.7181 92.9078 27.6779 92.4837 27.6032C92.7321 26.9142 92.9804 26.2213 93.2287 25.5246C93.3892 25.5284 93.5478 25.5284 93.7044 25.5246C94.1399 25.5246 94.4781 25.4327 94.7245 25.2433C94.9709 25.0595 95.183 24.7092 95.3606 24.1982C96.1782 21.932 96.9958 19.6677 97.8134 17.4054C100.774 17.4054 103.733 17.4054 106.69 17.4054C105.441 20.8314 104.192 24.2556 102.943 27.6779Z" fill="black"/>
<path d="M110.559 21.3674C111.128 21.3674 111.695 21.3674 112.261 21.3674C113.82 21.3674 114.88 21.643 115.43 22.1942C115.986 22.7397 116.049 23.5838 115.619 24.7437C115.27 25.6911 114.656 26.4204 113.774 26.9314C112.897 27.431 111.814 27.6836 110.53 27.6779C108.708 27.6779 106.887 27.6779 105.069 27.6779C106.318 24.2518 107.571 20.8276 108.828 17.4054C109.89 17.4054 110.952 17.4054 112.014 17.4054C111.529 18.7222 111.044 20.0429 110.559 21.3674ZM109.052 25.4729C109.59 25.4729 110.133 25.4729 110.679 25.4729C111.676 25.4729 112.307 25.1112 112.57 24.3934C112.805 23.7618 112.421 23.4403 111.424 23.446C110.878 23.4422 110.335 23.4422 109.797 23.446C109.544 24.1236 109.296 24.7992 109.052 25.4729Z" fill="black"/>
</svg>
