<svg width="144" height="41" viewBox="0 0 144 41" fill="none" xmlns="http://www.w3.org/2000/svg">
<g filter="url(#filter0_b_177_89)">
<path fill-rule="evenodd" clip-rule="evenodd" d="M144 0L0 4.13999e-06L11 20.5L0 41H144V0ZM32.0761 15.5469H28.537V27H32.0761V22.3672H35.9433V27H39.498V15.5469H35.9433V19.5547H32.0761V15.5469ZM42.9667 16.9141C41.9251 17.9557 41.4042 19.4115 41.4042 21.2812C41.4042 22.6198 41.6672 23.7344 42.1933 24.625C42.7193 25.5156 43.4042 26.1667 44.248 26.5781C45.0969 26.9896 46.1672 27.1953 47.4589 27.1953C48.7297 27.1953 49.7896 26.9583 50.6386 26.4844C51.4928 26.0052 52.1438 25.3385 52.5917 24.4844C53.0448 23.625 53.2714 22.526 53.2714 21.1875C53.2714 19.3438 52.7558 17.9115 51.7245 16.8906C50.6933 15.8646 49.2245 15.3516 47.3183 15.3516C45.4589 15.3516 44.0084 15.8724 42.9667 16.9141ZM45.5839 23.7891C45.1568 23.2839 44.9433 22.4531 44.9433 21.2969C44.9433 20.1302 45.1594 19.2943 45.5917 18.7891C46.024 18.2839 46.5969 18.0312 47.3105 18.0312C48.0553 18.0312 48.6438 18.2812 49.0761 18.7812C49.5136 19.276 49.7323 20.0625 49.7323 21.1406C49.7323 22.4219 49.524 23.3099 49.1073 23.8047C48.6907 24.2995 48.1021 24.5469 47.3417 24.5469C46.6021 24.5469 46.0162 24.2943 45.5839 23.7891ZM61.8105 15.5469H55.1855V27H61.2948C61.5553 27 62.0839 26.9479 62.8808 26.8438C63.4797 26.7656 63.9277 26.6406 64.2245 26.4688C64.7037 26.1927 65.0813 25.8177 65.3573 25.3438C65.6334 24.8698 65.7714 24.3359 65.7714 23.7422C65.7714 23.013 65.5761 22.4089 65.1855 21.9297C64.8001 21.4453 64.1959 21.1042 63.373 20.9062C63.9146 20.7188 64.3261 20.4635 64.6073 20.1406C65.0292 19.6562 65.2402 19.0755 65.2402 18.3984C65.2402 17.5911 64.9433 16.9141 64.3495 16.3672C63.761 15.8203 62.9146 15.5469 61.8105 15.5469ZM60.2948 20.0391H58.7558V17.8672H60.3183C60.8547 17.8672 61.2297 17.9609 61.4433 18.1484C61.662 18.3359 61.7714 18.5964 61.7714 18.9297C61.7714 19.2891 61.662 19.5651 61.4433 19.7578C61.2297 19.9453 60.8469 20.0391 60.2948 20.0391ZM60.5605 24.5391H58.7558V22.2188H60.5527C61.1725 22.2188 61.6047 22.3229 61.8495 22.5312C62.0995 22.7344 62.2245 23.0052 62.2245 23.3438C62.2245 23.7083 62.0995 24 61.8495 24.2188C61.5995 24.4323 61.1698 24.5391 60.5605 24.5391ZM78.5917 27V15.5469H75.287L70.9745 21.8828V15.5469H67.6386V27H70.9745L75.2636 20.7109V27H78.5917ZM84.5136 15.5469H80.9745V27H84.5136V22.3672H88.3808V27H91.9355V15.5469H88.3808V19.5547H84.5136V15.5469ZM100.717 27H104.701L103.146 23.8672C102.719 23.0026 102.316 22.3672 101.935 21.9609C101.555 21.5495 101.11 21.2604 100.6 21.0938C100.975 20.9427 101.269 20.7422 101.482 20.4922C101.701 20.237 101.904 19.8542 102.092 19.3438C102.279 18.8281 102.519 18.4557 102.81 18.2266C103.102 17.9974 103.55 17.8828 104.154 17.8828H104.334V15.4609C103.032 15.4609 102.076 15.5286 101.467 15.6641C100.857 15.7995 100.417 16.0234 100.146 16.3359C99.8756 16.6432 99.6073 17.1536 99.3417 17.8672C98.9771 18.8307 98.7089 19.4141 98.537 19.6172C98.3652 19.8203 98.1256 19.9297 97.8183 19.9453V15.5469H94.287V27H97.8183V22.4688C98.1412 22.4688 98.3938 22.5573 98.5761 22.7344C98.7584 22.9062 99.0136 23.3411 99.3417 24.0391L100.717 27ZM108.99 25.1094H113.021L113.584 27H117.287L112.982 15.5469H109.123L104.818 27H108.435L108.99 25.1094ZM111.014 18.5156L112.279 22.6328H109.756L111.014 18.5156Z" fill="white"/>
</g>
<defs>
<filter id="filter0_b_177_89" x="-4" y="-4" width="152" height="49" filterUnits="userSpaceOnUse" color-interpolation-filters="sRGB">
<feFlood flood-opacity="0" result="BackgroundImageFix"/>
<feGaussianBlur in="BackgroundImage" stdDeviation="2"/>
<feComposite in2="SourceAlpha" operator="in" result="effect1_backgroundBlur_177_89"/>
<feBlend mode="normal" in="SourceGraphic" in2="effect1_backgroundBlur_177_89" result="shape"/>
</filter>
</defs>
</svg>
