<svg width="25" height="25" viewBox="0 0 25 25" fill="none" xmlns="http://www.w3.org/2000/svg">
<path d="M10.4999 1.19049C5.80066 1.19049 1.99988 4.99127 1.99988 9.69049C1.99988 14.3897 5.80066 18.1905 10.4999 18.1905C12.1776 18.1905 13.7303 17.6983 15.0468 16.8624L21.1874 23.003L23.3124 20.878L17.2499 14.8311C18.3397 13.4014 18.9999 11.6299 18.9999 9.69049C18.9999 4.99127 15.1991 1.19049 10.4999 1.19049ZM10.4999 3.19049C14.0995 3.19049 16.9999 6.09088 16.9999 9.69049C16.9999 13.2901 14.0995 16.1905 10.4999 16.1905C6.90027 16.1905 3.99988 13.2901 3.99988 9.69049C3.99988 6.09088 6.90027 3.19049 10.4999 3.19049Z" fill="#9E9E9E"/>
</svg>
