<svg width="40" height="48" viewBox="0 0 40 48" fill="none" xmlns="http://www.w3.org/2000/svg">
<path fill-rule="evenodd" clip-rule="evenodd" d="M18.2578 0H14.3594L17.72 5.12854C7.74792 6.2602 0 14.7253 0 25C0 35.5066 8.10158 44.121 18.3984 44.9368V47.4531H21.9375V44.9074C32.0741 43.9329 40 35.3921 40 25C40 14.8985 32.5112 6.54621 22.7826 5.19202L26.1172 0H22.2578L20.2891 3.52344L18.2578 0ZM21.9375 44.9074V38.8281H25.5469V36H14.7891V38.8281H18.3984V44.9368C18.9268 44.9787 19.4609 45 20 45C20.6536 45 21.2999 44.9686 21.9375 44.9074ZM22.7826 5.19202L22.5547 5.54688L26.4531 11.4531H22.4766L20.2188 7.77344L17.9531 11.4531H14L17.9531 5.48438L17.72 5.12854C18.4682 5.04362 19.229 5 20 5C20.9442 5 21.8732 5.06544 22.7826 5.19202ZM25.6719 29.4531V18H22.3672L18.0547 24.3359V18H14.7188V29.4531H18.0547L22.3438 23.1641V29.4531H25.6719Z" fill="white"/>
</svg>
